{"title":"Jil Jung Juk 2016 Movies DVDScr XviD Clean Audio +Sample ~ ☻rDX☻","uid":13520022,"size":740240167,"categoryP":"video","categoryS":"movies","magnet":"?xt=urn:btih:f82f5ec202ce1465d5b360f6d49669ae5ebfc783&amp;dn=Jil+Jung+Juk+2016+Movies+DVDScr+XviD+Clean+Audio+%2BSample+%7E+%E2%98%BBrDX%E2%98%BB&amp;tr=udp%3A%2F%2Ftracker.leechers-paradise.org%3A6969&amp;tr=udp%3A%2F%2Fzer0day.ch%3A1337&amp;tr=udp%3A%2F%2Fopen.demonii.com%3A1337&amp;tr=udp%3A%2F%2Ftracker.coppersurfer.tk%3A6969&amp;tr=udp%3A%2F%2Fexodus.desync.com%3A6969","seeders":0,"leechers":2,"uploader":"basicssom","files":2,"time":1455352315,"description":"----------------------------------------------------------------\r\nJil Jung Juk 2016 Tamil Movies DVDScr XviD AAC Clean Audio New Source with Sample ~ ☻rDX☻\r\n\r\nSCREEN SHOTS &amp; POSTER:\r\n  \nhttp://mobileshosting.com/2016/2/JilJungjuk/11.html  \nhttp://mobileshosting.com/2016/2/JilJungjuk/1.html  \nhttp://mobileshosting.com/2016/2/JilJungjuk/2.html  \nhttp://mobileshosting.com/2016/2/JilJungjuk/3.html  \nhttp://mobileshosting.com/2016/2/JilJungjuk/4.html  \nhttp://mobileshosting.com/2016/2/JilJungjuk/5.html  \nhttp://mobileshosting.com/2016/2/JilJungjuk/6.html  \nhttp://mobileshosting.com/2016/2/JilJungjuk/7.html  \nhttp://mobileshosting.com/2016/2/JilJungjuk/8.html  \nhttp://mobileshosting.com/2016/2/JilJungjuk/9.html  \nhttp://mobileshosting.com/2016/2/JilJungjuk/10.html\r\n\r\nFormat                                   : Matroska\r\nFormat version                           : Version 4 / Version 2\r\nFile size                                : 700 MiB\r\nDuration                                 : 2h 6mn\r\nOverall bit rate                         : 775 Kbps\r\nMovie name                               : Jil Jung Juk 2016 Tamil Movies DVDScr XviD AAC Clean Audio ☻rDX☻\r\n\r\nVideo\r\nID                                       : 1\r\nFormat                                   : AVC\r\nFormat/Info                              : Advanced Video Codec\r\nFormat profile                           :   \r\nFormat settings, CABAC                   : Yes\r\nFormat settings, ReFrames                : 4 frames\r\nCodec ID                                 : V_MPEG4/ISO/AVC\r\nDuration                                 : 2h 6mn\r\nBit rate                                 : 677 Kbps\r\nWidth                                    : 608 pixels\r\nHeight                                   : 256 pixels\r\nDisplay aspect ratio                     : 2.40:1\r\nFrame rate mode                          : Constant\r\nFrame rate                               : 29.970 fps\r\nColor space                              : YUV\r\nChroma subsampling                       : 4:2:0\r\nBit depth                                : 8 bits\r\nScan type                                : Progressive\r\nBits/(Pixel*Frame)                       : 0.145\r\nStream size                              : 599 MiB (86%)\r\nTitle                                    : ☻rDX☻\r\nWriting library                          : XviD\r\nLanguage                                 : Tamil\r\nDefault                                  : Yes\r\nForced                                   : Yes\r\n\r\nAudio\r\nID                                       : 2\r\nFormat                                   : MPEG Audio\r\nFormat version                           : Version 1\r\nFormat profile                           : Layer 3\r\nMode                                     : Joint stereo\r\nMode extension                           : MS Stereo\r\nCodec ID                                 : A_MPEG/L3\r\nCodec ID/Hint                            : MP3\r\nDuration                                 : 2h 6mn\r\nBit rate mode                            : Constant\r\nBit rate                                 : 96.0 Kbps\r\nChannel(s)                               : 2 channels\r\nSampling rate                            : 48.0 KHz\r\nCompression mode                         : Lossy\r\nStream size                              : 86.7 MiB (12%)\r\nTitle                                    : ☻rDX☻\r\nWriting library                          : LAME3.98r\r\nEncoding settings                        : -m j -V 4 -q 3 -lowpass 15.1 -b 96\r\nLanguage                                 : Tamil\r\nDefault                                  : Yes\r\nForced                                   : Yes\r\n\r\nIMDB                                      \nhttp://www.imdb.com/title/tt5459644","torrent":{"xt":"urn:btih:f82f5ec202ce1465d5b360f6d49669ae5ebfc783","amp;dn":"Jil+Jung+Juk+2016+Movies+DVDScr+XviD+Clean+Audio+%2BSample+%7E+%E2%98%BBrDX%E2%98%BB","amp;tr":["udp%3A%2F%2Ftracker.leechers-paradise.org%3A6969","udp%3A%2F%2Fzer0day.ch%3A1337","udp%3A%2F%2Fopen.demonii.com%3A1337","udp%3A%2F%2Ftracker.coppersurfer.tk%3A6969","udp%3A%2F%2Fexodus.desync.com%3A6969"],"infoHash":"f82f5ec202ce1465d5b360f6d49669ae5ebfc783","infoHashBuffer":{"type":"Buffer","data":[248,47,94,194,2,206,20,101,213,179,96,246,212,150,105,174,94,191,199,131]},"announce":[],"urlList":[]}}